<?xml version="1.0" encoding="UTF-8" standalone="no"?>
<!DOCTYPE svg PUBLIC "-//W3C//DTD SVG 1.1//EN" "http://www.w3.org/Graphics/SVG/1.1/DTD/svg11.dtd">
<svg xmlns="http://www.w3.org/2000/svg" version="1.1" viewBox="0.00 0.00 1024.00 416.00">
<g stroke-width="2.00" fill="none" stroke-linecap="butt">
<path stroke="#929091" vector-effect="non-scaling-stroke" d="
  M 878.41 91.85
  A 1.52 1.52 0.0 0 0 879.74 93.30
  Q 896.01 95.37 902.82 108.03
  Q 906.82 115.46 907.65 124.81
  A 1.58 1.58 0.0 0 0 908.93 126.22
  L 908.99 126.23
  A 1.01 1.01 0.0 0 0 910.20 125.24
  L 910.30 99.00
  A 1.03 1.02 11.9 0 0 909.68 98.06
  Q 905.65 96.34 899.96 94.31
  Q 896.49 93.06 879.69 90.62
  A 1.13 1.13 0.0 0 0 878.40 91.79
  L 878.41 91.85"
/>
<path stroke="#929091" vector-effect="non-scaling-stroke" d="
  M 864.52 91.16
  C 854.84 92.15 843.94 96.72 839.00 105.51
  C 832.57 116.95 835.29 126.71 843.58 135.99
  Q 848.94 141.99 854.22 145.44
  Q 869.72 155.57 885.45 165.65
  C 901.16 175.73 905.95 199.84 884.58 207.60
  Q 883.22 208.09 883.70 209.41
  A 0.54 0.53 -12.5 0 0 884.26 209.76
  Q 891.46 209.07 897.07 206.77
  Q 904.09 203.89 907.07 200.68
  Q 914.70 192.45 914.65 181.62
  C 914.58 168.94 904.47 157.87 894.90 151.35
  Q 888.33 146.88 864.50 131.47
  C 854.25 124.85 847.42 113.48 854.14 101.82
  C 856.36 97.98 860.91 94.69 864.99 93.16
  A 1.04 1.04 0.0 0 0 864.52 91.16"
/>
<path stroke="#929091" vector-effect="non-scaling-stroke" d="
  M 116.45 151.70
  Q 116.43 191.69 116.34 195.76
  C 116.22 201.25 115.19 208.39 108.43 208.82
  A 0.80 0.80 0.0 0 0 107.68 209.62
  L 107.68 210.30
  A 0.75 0.75 0.0 0 0 108.43 211.05
  L 132.95 211.05
  A 0.41 0.40 -89.6 0 0 133.35 210.65
  Q 133.41 202.35 133.45 151.71
  Q 133.48 101.07 133.43 92.77
  A 0.41 0.40 89.7 0 0 133.03 92.37
  L 108.51 92.33
  A 0.75 0.75 0.0 0 0 107.76 93.08
  L 107.76 93.76
  A 0.80 0.80 0.0 0 0 108.51 94.56
  C 115.27 95.00 116.29 102.14 116.40 107.63
  Q 116.48 111.71 116.45 151.70"
/>
<path stroke="#929091" vector-effect="non-scaling-stroke" d="
  M 188.18 92.36
  L 147.15 92.36
  A 0.80 0.80 0.0 0 0 146.35 93.16
  L 146.35 93.90
  A 0.83 0.83 0.0 0 0 147.17 94.73
  Q 158.10 94.91 166.79 97.48
  Q 184.75 102.81 186.15 121.92
  A 0.90 0.90 0.0 0 0 187.05 122.76
  L 187.79 122.76
  A 0.79 0.79 0.0 0 0 188.58 121.97
  L 188.58 92.76
  A 0.40 0.40 0.0 0 0 188.18 92.36"
/>
<path stroke="#929091" vector-effect="non-scaling-stroke" d="
  M 271.95 93.95
  A 0.56 0.56 0.0 0 0 272.56 94.51
  Q 279.27 93.97 282.87 98.55
  Q 286.19 102.80 287.68 106.81
  Q 306.97 159.03 326.90 207.58
  Q 327.31 208.56 328.28 210.61
  A 1.03 1.02 81.9 0 0 329.03 211.18
  Q 330.64 211.45 331.30 209.76
  Q 335.83 198.26 337.74 193.53
  A 2.63 2.60 -44.7 0 0 337.76 191.63
  Q 336.89 189.29 307.70 110.97
  C 304.85 103.32 306.22 94.77 316.33 94.51
  A 0.71 0.70 89.2 0 0 317.01 93.80
  L 317.01 92.98
  A 0.59 0.58 90.0 0 0 316.43 92.39
  L 272.46 92.39
  A 0.52 0.51 90.0 0 0 271.95 92.91
  L 271.95 93.95"
/>
<path stroke="#929091" vector-effect="non-scaling-stroke" d="
  M 348.78 93.73
  A 0.72 0.72 0.0 0 0 349.53 94.45
  C 354.15 94.28 359.58 95.96 362.27 99.96
  C 365.31 104.48 364.50 112.02 363.15 117.17
  Q 361.15 124.81 358.17 133.11
  A 1.17 1.17 0.0 0 0 358.80 134.58
  L 358.91 134.63
  A 1.04 1.04 0.0 0 0 360.30 134.01
  Q 365.17 119.70 372.22 106.30
  C 376.11 98.92 380.97 93.58 389.39 94.52
  A 1.11 1.11 0.0 0 0 390.61 93.54
  L 390.63 93.27
  A 0.83 0.83 0.0 0 0 389.80 92.38
  L 349.47 92.38
  A 0.69 0.68 -0.0 0 0 348.78 93.06
  L 348.78 93.73"
/>
<path stroke="#929091" vector-effect="non-scaling-stroke" d="
  M 734.78 210.40
  L 734.78 189.86
  A 1.87 1.86 -63.7 0 0 734.40 188.73
  L 661.00 93.01
  A 1.63 1.62 71.4 0 0 659.70 92.36
  L 630.13 92.36
  A 0.77 0.77 0.0 0 0 629.36 93.13
  L 629.36 93.49
  A 0.86 0.85 -89.0 0 0 630.18 94.35
  C 639.27 94.69 645.26 101.81 650.19 108.20
  Q 723.48 203.42 728.97 210.49
  A 1.61 1.60 -19.0 0 0 730.23 211.10
  L 734.08 211.10
  A 0.70 0.70 0.0 0 0 734.78 210.40"
/>
<path stroke="#929091" vector-effect="non-scaling-stroke" d="
  M 710.66 93.43
  A 1.04 1.04 0.0 0 0 711.67 94.47
  C 732.44 95.04 732.43 118.50 732.43 133.57
  A 0.88 0.88 0.0 0 0 733.31 134.45
  L 733.94 134.45
  A 0.83 0.83 0.0 0 0 734.77 133.59
  C 734.18 117.13 735.54 94.91 757.54 94.42
  A 0.97 0.97 0.0 0 0 758.49 93.45
  L 758.49 93.14
  A 0.75 0.75 0.0 0 0 757.74 92.39
  L 711.40 92.39
  A 0.75 0.74 90.0 0 0 710.66 93.14
  L 710.66 93.43"
/>
<path stroke="#929091" vector-effect="non-scaling-stroke" d="
  M 484.36 208.80
  C 477.24 209.15 470.82 207.07 469.26 199.23
  Q 468.50 195.46 468.96 192.70
  Q 470.39 184.04 473.50 175.74
  A 1.15 1.15 0.0 0 1 474.58 174.99
  L 516.02 174.99
  A 0.98 0.97 -10.5 0 1 516.93 175.61
  Q 521.00 185.95 524.33 195.19
  Q 526.02 199.88 525.28 204.44
  Q 524.60 208.67 519.72 208.70
  A 0.62 0.62 0.0 0 0 519.10 209.32
  L 519.10 209.62
  A 0.38 0.38 0.0 0 0 519.48 210.00
  L 556.38 209.99
  A 0.49 0.49 0.0 0 0 556.87 209.54
  L 556.87 209.52
  A 0.59 0.59 0.0 0 0 556.36 208.87
  C 551.81 208.28 549.92 207.51 547.40 203.57
  Q 545.09 199.95 543.06 194.70
  Q 522.34 141.22 502.72 93.32
  A 1.39 1.39 0.0 0 0 500.13 93.38
  Q 497.84 99.83 494.62 108.42
  C 493.39 111.71 492.56 112.70 493.74 115.74
  Q 504.72 143.92 515.66 172.42
  A 0.35 0.34 79.5 0 1 515.34 172.89
  L 472.02 172.89
  A 1.23 1.23 0.0 0 0 470.87 173.69
  Q 465.82 187.48 459.98 199.22
  C 458.02 203.17 454.05 209.01 448.74 208.73
  A 0.45 0.45 0.0 0 0 448.27 209.18
  L 448.27 209.57
  A 0.43 0.43 0.0 0 0 448.70 210.00
  L 484.49 210.00
  A 0.41 0.40 -0.0 0 0 484.90 209.60
  L 484.90 209.31
  A 0.51 0.51 0.0 0 0 484.36 208.80"
/>
<path stroke="#929091" vector-effect="non-scaling-stroke" d="
  M 146.34 151.09
  Q 146.34 151.45 146.39 151.65
  A 0.84 0.83 85.4 0 0 147.11 152.27
  C 155.00 153.03 162.05 154.68 165.77 162.47
  Q 166.51 164.01 167.13 168.49
  A 1.02 1.01 86.1 0 0 168.13 169.37
  L 168.65 169.37
  A 0.87 0.87 0.0 0 0 169.52 168.51
  Q 169.54 160.00 169.55 151.10
  Q 169.55 142.21 169.54 133.70
  A 0.87 0.87 0.0 0 0 168.68 132.84
  L 168.16 132.84
  A 1.02 1.01 -86.0 0 0 167.16 133.71
  Q 166.53 138.19 165.79 139.73
  C 162.06 147.52 155.00 149.15 147.11 149.90
  A 0.84 0.83 -85.3 0 0 146.39 150.52
  Q 146.34 150.72 146.34 151.09"
/>
<path stroke="#929091" vector-effect="non-scaling-stroke" d="
  M 656.98 168.84
  A 0.94 0.94 0.0 0 0 656.04 169.79
  C 656.16 179.69 655.81 190.87 650.22 199.92
  C 646.20 206.42 640.26 207.86 632.86 208.69
  A 0.98 0.98 0.0 0 0 631.99 209.66
  L 631.99 210.13
  A 0.94 0.94 0.0 0 0 632.93 211.07
  L 679.45 211.07
  A 0.91 0.91 0.0 0 0 680.36 210.16
  L 680.36 209.74
  A 1.10 1.10 0.0 0 0 679.42 208.65
  C 677.99 208.45 676.11 208.42 674.83 208.09
  Q 666.54 205.94 662.90 198.45
  C 658.61 189.62 658.27 178.88 658.48 169.64
  A 0.79 0.79 0.0 0 0 657.69 168.84
  L 656.98 168.84"
/>
<path stroke="#929091" vector-effect="non-scaling-stroke" d="
  M 838.14 168.89
  A 0.81 0.81 0.0 0 0 837.33 169.70
  L 837.33 200.46
  A 1.05 1.04 14.7 0 0 837.87 201.37
  Q 845.35 205.48 851.69 207.07
  Q 858.98 208.91 869.86 209.92
  A 0.73 0.72 2.5 0 0 870.65 209.20
  L 870.65 208.91
  A 1.32 1.31 -85.7 0 0 869.54 207.61
  C 849.10 204.47 841.52 189.08 839.40 169.74
  A 0.96 0.96 0.0 0 0 838.45 168.89
  L 838.14 168.89"
/>
<path stroke="#929091" vector-effect="non-scaling-stroke" d="
  M 189.08 176.03
  A 0.56 0.56 0.0 0 0 188.52 176.52
  C 187.04 188.22 182.69 198.31 171.52 203.74
  C 163.98 207.41 155.92 208.10 147.25 208.53
  A 0.94 0.93 -1.6 0 0 146.36 209.46
  L 146.36 209.92
  A 1.16 1.15 0.0 0 0 147.52 211.07
  L 190.16 211.07
  A 0.51 0.51 0.0 0 0 190.67 210.56
  L 190.67 176.45
  A 0.42 0.42 0.0 0 0 190.25 176.03
  L 189.08 176.03"
/>
<path stroke="#929091" vector-effect="non-scaling-stroke" d="
  M 833.94 255.45
  A 0.65 0.65 0.0 0 0 833.29 254.80
  L 190.33 254.80
  A 0.65 0.65 0.0 0 0 189.68 255.45
  L 189.68 255.47
  A 0.65 0.65 0.0 0 0 190.33 256.12
  L 833.29 256.12
  A 0.65 0.65 0.0 0 0 833.94 255.47
  L 833.94 255.45"
/>
<path stroke="#929091" vector-effect="non-scaling-stroke" d="
  M 283.85 324.66
  L 286.36 322.74
  A 1.28 1.27 69.8 0 0 286.86 321.65
  Q 286.80 320.50 286.92 309.99
  Q 286.95 307.02 284.21 306.80
  Q 280.27 306.48 274.60 306.66
  A 0.45 0.45 0.0 0 0 274.17 307.11
  L 274.17 341.30
  A 1.02 1.01 0.0 0 0 275.19 342.31
  L 276.28 342.31
  A 0.97 0.96 -0.0 0 0 277.25 341.35
  L 277.25 326.37
  A 1.54 1.53 -85.9 0 1 279.00 324.85
  L 282.40 325.34
  A 2.32 2.31 4.2 0 1 284.38 327.63
  L 284.38 341.32
  A 1.03 1.02 0.0 0 0 285.41 342.34
  L 285.94 342.34
  A 0.91 0.90 -0.3 0 0 286.85 341.43
  Q 286.81 334.91 286.84 327.98
  C 286.85 325.51 286.44 324.66 283.88 324.74
  A 0.05 0.04 25.1 0 1 283.85 324.66"
/>
<path stroke="#929091" vector-effect="non-scaling-stroke" d="
  M 337.78 342.16
  A 0.23 0.23 0.0 0 0 338.01 341.93
  L 338.01 341.36
  A 0.23 0.23 0.0 0 0 337.78 341.13
  L 331.18 341.13
  A 0.23 0.23 0.0 0 1 330.95 340.90
  L 330.95 325.22
  A 0.23 0.23 0.0 0 1 331.18 324.99
  L 337.14 324.99
  A 0.23 0.23 0.0 0 0 337.37 324.76
  L 337.37 323.66
  A 0.23 0.23 0.0 0 0 337.14 323.43
  L 331.23 323.43
  A 0.23 0.23 0.0 0 1 331.00 323.20
  L 331.00 308.33
  A 0.23 0.23 0.0 0 1 331.23 308.10
  L 337.55 308.10
  A 0.23 0.23 0.0 0 0 337.78 307.87
  L 337.78 306.85
  A 0.23 0.23 0.0 0 0 337.55 306.62
  L 328.53 306.62
  A 0.23 0.23 0.0 0 0 328.30 306.85
  L 328.30 341.93
  A 0.23 0.23 0.0 0 0 328.53 342.16
  L 337.78 342.16"
/>
<path stroke="#929091" vector-effect="non-scaling-stroke" d="
  M 380.72 310.44
  L 387.09 341.57
  A 0.81 0.81 0.0 0 0 387.88 342.22
  L 390.72 342.22
  A 0.74 0.73 -0.0 0 0 391.46 341.49
  L 391.46 307.39
  A 0.77 0.77 0.0 0 0 390.68 306.62
  L 389.58 306.65
  A 1.14 1.14 0.0 0 0 388.46 307.81
  L 389.08 340.01
  A 0.08 0.07 22.4 0 1 388.95 340.06
  Q 388.93 340.05 388.92 339.96
  Q 382.88 309.11 382.71 307.65
  A 1.00 0.99 5.3 0 0 382.00 306.80
  Q 381.14 306.55 379.22 306.61
  A 0.78 0.78 0.0 0 0 378.46 307.39
  L 378.46 341.59
  A 0.61 0.60 -0.5 0 0 379.08 342.19
  L 380.34 342.17
  A 0.72 0.71 -1.2 0 0 381.04 341.45
  L 380.49 310.48
  A 0.15 0.15 0.0 0 1 380.62 310.33
  L 380.63 310.33
  A 0.17 0.15 -87.1 0 1 380.72 310.44"
/>
<path stroke="#929091" vector-effect="non-scaling-stroke" d="
  M 446.36 309.79
  A 3.20 3.20 0.0 0 0 443.16 306.59
  L 436.94 306.59
  A 3.20 3.20 0.0 0 0 433.74 309.79
  L 433.74 339.09
  A 3.20 3.20 0.0 0 0 436.94 342.29
  L 443.16 342.29
  A 3.20 3.20 0.0 0 0 446.36 339.09
  L 446.36 309.79"
/>
<path stroke="#929091" vector-effect="non-scaling-stroke" d="
  M 493.27 340.31
  C 493.01 339.98 493.10 338.49 492.97 337.56
  Q 490.53 320.07 488.46 307.69
  A 1.31 1.30 85.0 0 0 487.18 306.61
  L 486.18 306.61
  A 0.82 0.82 0.0 0 0 485.37 307.56
  L 491.03 341.48
  A 0.90 0.90 0.0 0 0 491.92 342.24
  L 494.83 342.24
  A 0.78 0.77 -84.6 0 0 495.59 341.61
  Q 498.31 327.85 499.97 315.50
  Q 500.63 310.68 500.42 307.19
  A 0.79 0.79 0.0 0 0 499.18 306.58
  Q 498.71 306.90 498.67 307.12
  Q 495.29 325.14 493.79 340.16
  A 0.29 0.29 0.0 0 1 493.27 340.31"
/>
<path stroke="#929091" vector-effect="non-scaling-stroke" d="
  M 543.65 332.22
  Q 546.33 332.22 546.68 332.22
  A 0.76 0.75 -4.1 0 1 547.42 332.85
  L 548.87 341.52
  A 1.02 1.01 -7.7 0 0 549.99 342.37
  L 550.47 342.31
  A 1.23 1.22 -8.1 0 0 551.54 340.90
  L 545.97 307.50
  A 0.86 0.84 1.8 0 0 545.31 306.81
  Q 544.53 306.64 543.67 306.64
  Q 542.80 306.64 542.03 306.80
  A 0.86 0.84 -1.7 0 0 541.37 307.50
  L 535.74 340.89
  A 1.23 1.22 8.2 0 0 536.81 342.30
  L 537.29 342.36
  A 1.02 1.01 7.8 0 0 538.41 341.51
  L 539.87 332.84
  A 0.76 0.75 4.2 0 1 540.61 332.22
  Q 540.96 332.21 543.65 332.22"
/>
<path stroke="#929091" vector-effect="non-scaling-stroke" d="
  M 592.78 342.33
  Q 593.63 342.33 593.81 342.19
  A 1.19 1.18 70.7 0 0 594.25 341.26
  L 594.31 308.70
  A 0.62 0.62 0.0 0 1 594.93 308.08
  L 598.50 308.08
  A 0.70 0.70 0.0 0 0 599.16 307.62
  L 599.26 307.34
  A 0.54 0.54 0.0 0 0 598.74 306.71
  Q 595.85 306.62 592.83 306.61
  Q 589.80 306.61 586.91 306.69
  A 0.54 0.54 0.0 0 0 586.39 307.32
  L 586.49 307.60
  A 0.70 0.70 0.0 0 0 587.15 308.06
  L 590.72 308.07
  A 0.62 0.62 0.0 0 1 591.33 308.70
  L 591.30 341.26
  A 1.19 1.18 -70.6 0 0 591.74 342.18
  Q 591.92 342.33 592.78 342.33"
/>
<path stroke="#929091" vector-effect="non-scaling-stroke" d="
  M 640.91 307.61
  A 1.02 1.02 0.0 0 0 639.89 306.59
  L 639.27 306.59
  A 1.02 1.02 0.0 0 0 638.25 307.61
  L 638.25 341.39
  A 1.02 1.02 0.0 0 0 639.27 342.41
  L 639.89 342.41
  A 1.02 1.02 0.0 0 0 640.91 341.39
  L 640.91 307.61"
/>
<path stroke="#929091" vector-effect="non-scaling-stroke" d="
  M 695.21 309.81
  A 3.16 3.16 0.0 0 0 692.05 306.65
  L 685.93 306.65
  A 3.16 3.16 0.0 0 0 682.77 309.81
  L 682.77 339.05
  A 3.16 3.16 0.0 0 0 685.93 342.21
  L 692.05 342.21
  A 3.16 3.16 0.0 0 0 695.21 339.05
  L 695.21 309.81"
/>
<path stroke="#929091" vector-effect="non-scaling-stroke" d="
  M 744.36 324.29
  Q 743.10 318.17 741.07 307.54
  A 1.01 1.00 84.5 0 0 740.08 306.72
  L 737.31 306.72
  A 0.58 0.57 -90.0 0 0 736.74 307.30
  L 736.74 341.62
  A 0.68 0.68 0.0 0 0 737.42 342.30
  L 738.60 342.30
  A 0.67 0.67 0.0 0 0 739.27 341.65
  Q 739.73 324.87 738.92 309.74
  A 0.20 0.02 83.7 0 1 738.92 309.59
  Q 738.94 309.55 738.95 309.52
  A 0.04 0.04 0.0 0 1 739.03 309.53
  Q 740.43 316.07 742.20 324.70
  Q 743.45 330.82 745.49 341.45
  A 1.01 1.00 84.5 0 0 746.47 342.27
  L 749.24 342.27
  A 0.58 0.57 -90.0 0 0 749.81 341.69
  L 749.81 307.37
  A 0.68 0.68 0.0 0 0 749.13 306.69
  L 747.95 306.69
  A 0.67 0.67 0.0 0 0 747.28 307.34
  Q 746.82 324.12 747.63 339.25
  A 0.20 0.02 83.7 0 1 747.63 339.40
  Q 747.61 339.44 747.60 339.47
  A 0.04 0.04 0.0 0 1 747.53 339.46
  Q 746.12 332.92 744.36 324.29"
/>
<path stroke="#929091" vector-effect="non-scaling-stroke" d="
  M 277.32 308.80
  L 277.24 322.54
  A 0.74 0.74 0.0 0 0 277.98 323.29
  L 280.81 323.30
  A 3.49 2.49 0.3 0 0 284.31 320.83
  L 284.37 310.59
  A 3.49 2.49 0.3 0 0 280.89 308.08
  L 278.06 308.07
  A 0.74 0.74 0.0 0 0 277.32 308.80"
/>
<path stroke="#929091" vector-effect="non-scaling-stroke" d="
  M 443.90 310.28
  A 2.30 2.30 0.0 0 0 441.60 307.98
  L 439.02 307.98
  A 2.30 2.30 0.0 0 0 436.72 310.28
  L 436.72 338.70
  A 2.30 2.30 0.0 0 0 439.02 341.00
  L 441.60 341.00
  A 2.30 2.30 0.0 0 0 443.90 338.70
  L 443.90 310.28"
/>
<path stroke="#929091" vector-effect="non-scaling-stroke" d="
  M 543.48 330.55
  Q 545.38 330.56 546.61 330.44
  A 0.26 0.26 0.0 0 0 546.84 330.13
  Q 544.72 317.68 543.76 309.44
  Q 543.74 309.27 543.55 309.27
  Q 543.35 309.27 543.33 309.43
  Q 542.32 317.67 540.12 330.11
  A 0.26 0.26 0.0 0 0 540.35 330.42
  Q 541.58 330.55 543.48 330.55"
/>
<path stroke="#929091" vector-effect="non-scaling-stroke" d="
  M 692.8249 310.1036
  A 2.20 2.20 0.0 0 0 690.6211 307.9074
  L 687.6411 307.9126
  A 2.20 2.20 0.0 0 0 685.4449 310.1165
  L 685.4951 338.8764
  A 2.20 2.20 0.0 0 0 687.6989 341.0726
  L 690.6789 341.0674
  A 2.20 2.20 0.0 0 0 692.8751 338.8635
  L 692.8249 310.1036"
/>
</g>
<path fill="#ffffff" d="
  M 1024.00 0.00
  L 1024.00 416.00
  L 0.00 416.00
  L 0.00 0.00
  L 1024.00 0.00
  Z
  M 878.41 91.85
  A 1.52 1.52 0.0 0 0 879.74 93.30
  Q 896.01 95.37 902.82 108.03
  Q 906.82 115.46 907.65 124.81
  A 1.58 1.58 0.0 0 0 908.93 126.22
  L 908.99 126.23
  A 1.01 1.01 0.0 0 0 910.20 125.24
  L 910.30 99.00
  A 1.03 1.02 11.9 0 0 909.68 98.06
  Q 905.65 96.34 899.96 94.31
  Q 896.49 93.06 879.69 90.62
  A 1.13 1.13 0.0 0 0 878.40 91.79
  L 878.41 91.85
  Z
  M 864.52 91.16
  C 854.84 92.15 843.94 96.72 839.00 105.51
  C 832.57 116.95 835.29 126.71 843.58 135.99
  Q 848.94 141.99 854.22 145.44
  Q 869.72 155.57 885.45 165.65
  C 901.16 175.73 905.95 199.84 884.58 207.60
  Q 883.22 208.09 883.70 209.41
  A 0.54 0.53 -12.5 0 0 884.26 209.76
  Q 891.46 209.07 897.07 206.77
  Q 904.09 203.89 907.07 200.68
  Q 914.70 192.45 914.65 181.62
  C 914.58 168.94 904.47 157.87 894.90 151.35
  Q 888.33 146.88 864.50 131.47
  C 854.25 124.85 847.42 113.48 854.14 101.82
  C 856.36 97.98 860.91 94.69 864.99 93.16
  A 1.04 1.04 0.0 0 0 864.52 91.16
  Z
  M 116.45 151.70
  Q 116.43 191.69 116.34 195.76
  C 116.22 201.25 115.19 208.39 108.43 208.82
  A 0.80 0.80 0.0 0 0 107.68 209.62
  L 107.68 210.30
  A 0.75 0.75 0.0 0 0 108.43 211.05
  L 132.95 211.05
  A 0.41 0.40 -89.6 0 0 133.35 210.65
  Q 133.41 202.35 133.45 151.71
  Q 133.48 101.07 133.43 92.77
  A 0.41 0.40 89.7 0 0 133.03 92.37
  L 108.51 92.33
  A 0.75 0.75 0.0 0 0 107.76 93.08
  L 107.76 93.76
  A 0.80 0.80 0.0 0 0 108.51 94.56
  C 115.27 95.00 116.29 102.14 116.40 107.63
  Q 116.48 111.71 116.45 151.70
  Z
  M 188.18 92.36
  L 147.15 92.36
  A 0.80 0.80 0.0 0 0 146.35 93.16
  L 146.35 93.90
  A 0.83 0.83 0.0 0 0 147.17 94.73
  Q 158.10 94.91 166.79 97.48
  Q 184.75 102.81 186.15 121.92
  A 0.90 0.90 0.0 0 0 187.05 122.76
  L 187.79 122.76
  A 0.79 0.79 0.0 0 0 188.58 121.97
  L 188.58 92.76
  A 0.40 0.40 0.0 0 0 188.18 92.36
  Z
  M 271.95 93.95
  A 0.56 0.56 0.0 0 0 272.56 94.51
  Q 279.27 93.97 282.87 98.55
  Q 286.19 102.80 287.68 106.81
  Q 306.97 159.03 326.90 207.58
  Q 327.31 208.56 328.28 210.61
  A 1.03 1.02 81.9 0 0 329.03 211.18
  Q 330.64 211.45 331.30 209.76
  Q 335.83 198.26 337.74 193.53
  A 2.63 2.60 -44.7 0 0 337.76 191.63
  Q 336.89 189.29 307.70 110.97
  C 304.85 103.32 306.22 94.77 316.33 94.51
  A 0.71 0.70 89.2 0 0 317.01 93.80
  L 317.01 92.98
  A 0.59 0.58 90.0 0 0 316.43 92.39
  L 272.46 92.39
  A 0.52 0.51 90.0 0 0 271.95 92.91
  L 271.95 93.95
  Z
  M 348.78 93.73
  A 0.72 0.72 0.0 0 0 349.53 94.45
  C 354.15 94.28 359.58 95.96 362.27 99.96
  C 365.31 104.48 364.50 112.02 363.15 117.17
  Q 361.15 124.81 358.17 133.11
  A 1.17 1.17 0.0 0 0 358.80 134.58
  L 358.91 134.63
  A 1.04 1.04 0.0 0 0 360.30 134.01
  Q 365.17 119.70 372.22 106.30
  C 376.11 98.92 380.97 93.58 389.39 94.52
  A 1.11 1.11 0.0 0 0 390.61 93.54
  L 390.63 93.27
  A 0.83 0.83 0.0 0 0 389.80 92.38
  L 349.47 92.38
  A 0.69 0.68 -0.0 0 0 348.78 93.06
  L 348.78 93.73
  Z
  M 734.78 210.40
  L 734.78 189.86
  A 1.87 1.86 -63.7 0 0 734.40 188.73
  L 661.00 93.01
  A 1.63 1.62 71.4 0 0 659.70 92.36
  L 630.13 92.36
  A 0.77 0.77 0.0 0 0 629.36 93.13
  L 629.36 93.49
  A 0.86 0.85 -89.0 0 0 630.18 94.35
  C 639.27 94.69 645.26 101.81 650.19 108.20
  Q 723.48 203.42 728.97 210.49
  A 1.61 1.60 -19.0 0 0 730.23 211.10
  L 734.08 211.10
  A 0.70 0.70 0.0 0 0 734.78 210.40
  Z
  M 710.66 93.43
  A 1.04 1.04 0.0 0 0 711.67 94.47
  C 732.44 95.04 732.43 118.50 732.43 133.57
  A 0.88 0.88 0.0 0 0 733.31 134.45
  L 733.94 134.45
  A 0.83 0.83 0.0 0 0 734.77 133.59
  C 734.18 117.13 735.54 94.91 757.54 94.42
  A 0.97 0.97 0.0 0 0 758.49 93.45
  L 758.49 93.14
  A 0.75 0.75 0.0 0 0 757.74 92.39
  L 711.40 92.39
  A 0.75 0.74 90.0 0 0 710.66 93.14
  L 710.66 93.43
  Z
  M 484.36 208.80
  C 477.24 209.15 470.82 207.07 469.26 199.23
  Q 468.50 195.46 468.96 192.70
  Q 470.39 184.04 473.50 175.74
  A 1.15 1.15 0.0 0 1 474.58 174.99
  L 516.02 174.99
  A 0.98 0.97 -10.5 0 1 516.93 175.61
  Q 521.00 185.95 524.33 195.19
  Q 526.02 199.88 525.28 204.44
  Q 524.60 208.67 519.72 208.70
  A 0.62 0.62 0.0 0 0 519.10 209.32
  L 519.10 209.62
  A 0.38 0.38 0.0 0 0 519.48 210.00
  L 556.38 209.99
  A 0.49 0.49 0.0 0 0 556.87 209.54
  L 556.87 209.52
  A 0.59 0.59 0.0 0 0 556.36 208.87
  C 551.81 208.28 549.92 207.51 547.40 203.57
  Q 545.09 199.95 543.06 194.70
  Q 522.34 141.22 502.72 93.32
  A 1.39 1.39 0.0 0 0 500.13 93.38
  Q 497.84 99.83 494.62 108.42
  C 493.39 111.71 492.56 112.70 493.74 115.74
  Q 504.72 143.92 515.66 172.42
  A 0.35 0.34 79.5 0 1 515.34 172.89
  L 472.02 172.89
  A 1.23 1.23 0.0 0 0 470.87 173.69
  Q 465.82 187.48 459.98 199.22
  C 458.02 203.17 454.05 209.01 448.74 208.73
  A 0.45 0.45 0.0 0 0 448.27 209.18
  L 448.27 209.57
  A 0.43 0.43 0.0 0 0 448.70 210.00
  L 484.49 210.00
  A 0.41 0.40 -0.0 0 0 484.90 209.60
  L 484.90 209.31
  A 0.51 0.51 0.0 0 0 484.36 208.80
  Z
  M 146.34 151.09
  Q 146.34 151.45 146.39 151.65
  A 0.84 0.83 85.4 0 0 147.11 152.27
  C 155.00 153.03 162.05 154.68 165.77 162.47
  Q 166.51 164.01 167.13 168.49
  A 1.02 1.01 86.1 0 0 168.13 169.37
  L 168.65 169.37
  A 0.87 0.87 0.0 0 0 169.52 168.51
  Q 169.54 160.00 169.55 151.10
  Q 169.55 142.21 169.54 133.70
  A 0.87 0.87 0.0 0 0 168.68 132.84
  L 168.16 132.84
  A 1.02 1.01 -86.0 0 0 167.16 133.71
  Q 166.53 138.19 165.79 139.73
  C 162.06 147.52 155.00 149.15 147.11 149.90
  A 0.84 0.83 -85.3 0 0 146.39 150.52
  Q 146.34 150.72 146.34 151.09
  Z
  M 656.98 168.84
  A 0.94 0.94 0.0 0 0 656.04 169.79
  C 656.16 179.69 655.81 190.87 650.22 199.92
  C 646.20 206.42 640.26 207.86 632.86 208.69
  A 0.98 0.98 0.0 0 0 631.99 209.66
  L 631.99 210.13
  A 0.94 0.94 0.0 0 0 632.93 211.07
  L 679.45 211.07
  A 0.91 0.91 0.0 0 0 680.36 210.16
  L 680.36 209.74
  A 1.10 1.10 0.0 0 0 679.42 208.65
  C 677.99 208.45 676.11 208.42 674.83 208.09
  Q 666.54 205.94 662.90 198.45
  C 658.61 189.62 658.27 178.88 658.48 169.64
  A 0.79 0.79 0.0 0 0 657.69 168.84
  L 656.98 168.84
  Z
  M 838.14 168.89
  A 0.81 0.81 0.0 0 0 837.33 169.70
  L 837.33 200.46
  A 1.05 1.04 14.7 0 0 837.87 201.37
  Q 845.35 205.48 851.69 207.07
  Q 858.98 208.91 869.86 209.92
  A 0.73 0.72 2.5 0 0 870.65 209.20
  L 870.65 208.91
  A 1.32 1.31 -85.7 0 0 869.54 207.61
  C 849.10 204.47 841.52 189.08 839.40 169.74
  A 0.96 0.96 0.0 0 0 838.45 168.89
  L 838.14 168.89
  Z
  M 189.08 176.03
  A 0.56 0.56 0.0 0 0 188.52 176.52
  C 187.04 188.22 182.69 198.31 171.52 203.74
  C 163.98 207.41 155.92 208.10 147.25 208.53
  A 0.94 0.93 -1.6 0 0 146.36 209.46
  L 146.36 209.92
  A 1.16 1.15 0.0 0 0 147.52 211.07
  L 190.16 211.07
  A 0.51 0.51 0.0 0 0 190.67 210.56
  L 190.67 176.45
  A 0.42 0.42 0.0 0 0 190.25 176.03
  L 189.08 176.03
  Z
  M 833.94 255.45
  A 0.65 0.65 0.0 0 0 833.29 254.80
  L 190.33 254.80
  A 0.65 0.65 0.0 0 0 189.68 255.45
  L 189.68 255.47
  A 0.65 0.65 0.0 0 0 190.33 256.12
  L 833.29 256.12
  A 0.65 0.65 0.0 0 0 833.94 255.47
  L 833.94 255.45
  Z
  M 283.85 324.66
  L 286.36 322.74
  A 1.28 1.27 69.8 0 0 286.86 321.65
  Q 286.80 320.50 286.92 309.99
  Q 286.95 307.02 284.21 306.80
  Q 280.27 306.48 274.60 306.66
  A 0.45 0.45 0.0 0 0 274.17 307.11
  L 274.17 341.30
  A 1.02 1.01 0.0 0 0 275.19 342.31
  L 276.28 342.31
  A 0.97 0.96 -0.0 0 0 277.25 341.35
  L 277.25 326.37
  A 1.54 1.53 -85.9 0 1 279.00 324.85
  L 282.40 325.34
  A 2.32 2.31 4.2 0 1 284.38 327.63
  L 284.38 341.32
  A 1.03 1.02 0.0 0 0 285.41 342.34
  L 285.94 342.34
  A 0.91 0.90 -0.3 0 0 286.85 341.43
  Q 286.81 334.91 286.84 327.98
  C 286.85 325.51 286.44 324.66 283.88 324.74
  A 0.05 0.04 25.1 0 1 283.85 324.66
  Z
  M 337.78 342.16
  A 0.23 0.23 0.0 0 0 338.01 341.93
  L 338.01 341.36
  A 0.23 0.23 0.0 0 0 337.78 341.13
  L 331.18 341.13
  A 0.23 0.23 0.0 0 1 330.95 340.90
  L 330.95 325.22
  A 0.23 0.23 0.0 0 1 331.18 324.99
  L 337.14 324.99
  A 0.23 0.23 0.0 0 0 337.37 324.76
  L 337.37 323.66
  A 0.23 0.23 0.0 0 0 337.14 323.43
  L 331.23 323.43
  A 0.23 0.23 0.0 0 1 331.00 323.20
  L 331.00 308.33
  A 0.23 0.23 0.0 0 1 331.23 308.10
  L 337.55 308.10
  A 0.23 0.23 0.0 0 0 337.78 307.87
  L 337.78 306.85
  A 0.23 0.23 0.0 0 0 337.55 306.62
  L 328.53 306.62
  A 0.23 0.23 0.0 0 0 328.30 306.85
  L 328.30 341.93
  A 0.23 0.23 0.0 0 0 328.53 342.16
  L 337.78 342.16
  Z
  M 380.72 310.44
  L 387.09 341.57
  A 0.81 0.81 0.0 0 0 387.88 342.22
  L 390.72 342.22
  A 0.74 0.73 -0.0 0 0 391.46 341.49
  L 391.46 307.39
  A 0.77 0.77 0.0 0 0 390.68 306.62
  L 389.58 306.65
  A 1.14 1.14 0.0 0 0 388.46 307.81
  L 389.08 340.01
  A 0.08 0.07 22.4 0 1 388.95 340.06
  Q 388.93 340.05 388.92 339.96
  Q 382.88 309.11 382.71 307.65
  A 1.00 0.99 5.3 0 0 382.00 306.80
  Q 381.14 306.55 379.22 306.61
  A 0.78 0.78 0.0 0 0 378.46 307.39
  L 378.46 341.59
  A 0.61 0.60 -0.5 0 0 379.08 342.19
  L 380.34 342.17
  A 0.72 0.71 -1.2 0 0 381.04 341.45
  L 380.49 310.48
  A 0.15 0.15 0.0 0 1 380.62 310.33
  L 380.63 310.33
  A 0.17 0.15 -87.1 0 1 380.72 310.44
  Z
  M 446.36 309.79
  A 3.20 3.20 0.0 0 0 443.16 306.59
  L 436.94 306.59
  A 3.20 3.20 0.0 0 0 433.74 309.79
  L 433.74 339.09
  A 3.20 3.20 0.0 0 0 436.94 342.29
  L 443.16 342.29
  A 3.20 3.20 0.0 0 0 446.36 339.09
  L 446.36 309.79
  Z
  M 493.27 340.31
  C 493.01 339.98 493.10 338.49 492.97 337.56
  Q 490.53 320.07 488.46 307.69
  A 1.31 1.30 85.0 0 0 487.18 306.61
  L 486.18 306.61
  A 0.82 0.82 0.0 0 0 485.37 307.56
  L 491.03 341.48
  A 0.90 0.90 0.0 0 0 491.92 342.24
  L 494.83 342.24
  A 0.78 0.77 -84.6 0 0 495.59 341.61
  Q 498.31 327.85 499.97 315.50
  Q 500.63 310.68 500.42 307.19
  A 0.79 0.79 0.0 0 0 499.18 306.58
  Q 498.71 306.90 498.67 307.12
  Q 495.29 325.14 493.79 340.16
  A 0.29 0.29 0.0 0 1 493.27 340.31
  Z
  M 543.65 332.22
  Q 546.33 332.22 546.68 332.22
  A 0.76 0.75 -4.1 0 1 547.42 332.85
  L 548.87 341.52
  A 1.02 1.01 -7.7 0 0 549.99 342.37
  L 550.47 342.31
  A 1.23 1.22 -8.1 0 0 551.54 340.90
  L 545.97 307.50
  A 0.86 0.84 1.8 0 0 545.31 306.81
  Q 544.53 306.64 543.67 306.64
  Q 542.80 306.64 542.03 306.80
  A 0.86 0.84 -1.7 0 0 541.37 307.50
  L 535.74 340.89
  A 1.23 1.22 8.2 0 0 536.81 342.30
  L 537.29 342.36
  A 1.02 1.01 7.8 0 0 538.41 341.51
  L 539.87 332.84
  A 0.76 0.75 4.2 0 1 540.61 332.22
  Q 540.96 332.21 543.65 332.22
  Z
  M 592.78 342.33
  Q 593.63 342.33 593.81 342.19
  A 1.19 1.18 70.7 0 0 594.25 341.26
  L 594.31 308.70
  A 0.62 0.62 0.0 0 1 594.93 308.08
  L 598.50 308.08
  A 0.70 0.70 0.0 0 0 599.16 307.62
  L 599.26 307.34
  A 0.54 0.54 0.0 0 0 598.74 306.71
  Q 595.85 306.62 592.83 306.61
  Q 589.80 306.61 586.91 306.69
  A 0.54 0.54 0.0 0 0 586.39 307.32
  L 586.49 307.60
  A 0.70 0.70 0.0 0 0 587.15 308.06
  L 590.72 308.07
  A 0.62 0.62 0.0 0 1 591.33 308.70
  L 591.30 341.26
  A 1.19 1.18 -70.6 0 0 591.74 342.18
  Q 591.92 342.33 592.78 342.33
  Z
  M 640.91 307.61
  A 1.02 1.02 0.0 0 0 639.89 306.59
  L 639.27 306.59
  A 1.02 1.02 0.0 0 0 638.25 307.61
  L 638.25 341.39
  A 1.02 1.02 0.0 0 0 639.27 342.41
  L 639.89 342.41
  A 1.02 1.02 0.0 0 0 640.91 341.39
  L 640.91 307.61
  Z
  M 695.21 309.81
  A 3.16 3.16 0.0 0 0 692.05 306.65
  L 685.93 306.65
  A 3.16 3.16 0.0 0 0 682.77 309.81
  L 682.77 339.05
  A 3.16 3.16 0.0 0 0 685.93 342.21
  L 692.05 342.21
  A 3.16 3.16 0.0 0 0 695.21 339.05
  L 695.21 309.81
  Z
  M 744.36 324.29
  Q 743.10 318.17 741.07 307.54
  A 1.01 1.00 84.5 0 0 740.08 306.72
  L 737.31 306.72
  A 0.58 0.57 -90.0 0 0 736.74 307.30
  L 736.74 341.62
  A 0.68 0.68 0.0 0 0 737.42 342.30
  L 738.60 342.30
  A 0.67 0.67 0.0 0 0 739.27 341.65
  Q 739.73 324.87 738.92 309.74
  A 0.20 0.02 83.7 0 1 738.92 309.59
  Q 738.94 309.55 738.95 309.52
  A 0.04 0.04 0.0 0 1 739.03 309.53
  Q 740.43 316.07 742.20 324.70
  Q 743.45 330.82 745.49 341.45
  A 1.01 1.00 84.5 0 0 746.47 342.27
  L 749.24 342.27
  A 0.58 0.57 -90.0 0 0 749.81 341.69
  L 749.81 307.37
  A 0.68 0.68 0.0 0 0 749.13 306.69
  L 747.95 306.69
  A 0.67 0.67 0.0 0 0 747.28 307.34
  Q 746.82 324.12 747.63 339.25
  A 0.20 0.02 83.7 0 1 747.63 339.40
  Q 747.61 339.44 747.60 339.47
  A 0.04 0.04 0.0 0 1 747.53 339.46
  Q 746.12 332.92 744.36 324.29
  Z"
/>
<path fill="#242122" d="
  M 878.41 91.85
  L 878.40 91.79
  A 1.13 1.13 0.0 0 1 879.69 90.62
  Q 896.49 93.06 899.96 94.31
  Q 905.65 96.34 909.68 98.06
  A 1.03 1.02 11.9 0 1 910.30 99.00
  L 910.20 125.24
  A 1.01 1.01 0.0 0 1 908.99 126.23
  L 908.93 126.22
  A 1.58 1.58 0.0 0 1 907.65 124.81
  Q 906.82 115.46 902.82 108.03
  Q 896.01 95.37 879.74 93.30
  A 1.52 1.52 0.0 0 1 878.41 91.85
  Z"
/>
<path fill="#242122" d="
  M 864.52 91.16
  A 1.04 1.04 0.0 0 1 864.99 93.16
  C 860.91 94.69 856.36 97.98 854.14 101.82
  C 847.42 113.48 854.25 124.85 864.50 131.47
  Q 888.33 146.88 894.90 151.35
  C 904.47 157.87 914.58 168.94 914.65 181.62
  Q 914.70 192.45 907.07 200.68
  Q 904.09 203.89 897.07 206.77
  Q 891.46 209.07 884.26 209.76
  A 0.54 0.53 -12.5 0 1 883.70 209.41
  Q 883.22 208.09 884.58 207.60
  C 905.95 199.84 901.16 175.73 885.45 165.65
  Q 869.72 155.57 854.22 145.44
  Q 848.94 141.99 843.58 135.99
  C 835.29 126.71 832.57 116.95 839.00 105.51
  C 843.94 96.72 854.84 92.15 864.52 91.16
  Z"
/>
<path fill="#242122" d="
  M 133.45 151.71
  Q 133.41 202.35 133.35 210.65
  A 0.41 0.40 -89.6 0 1 132.95 211.05
  L 108.43 211.05
  A 0.75 0.75 0.0 0 1 107.68 210.30
  L 107.68 209.62
  A 0.80 0.80 0.0 0 1 108.43 208.82
  C 115.19 208.39 116.22 201.25 116.34 195.76
  Q 116.43 191.69 116.45 151.70
  Q 116.48 111.71 116.40 107.63
  C 116.29 102.14 115.27 95.00 108.51 94.56
  A 0.80 0.80 0.0 0 1 107.76 93.76
  L 107.76 93.08
  A 0.75 0.75 0.0 0 1 108.51 92.33
  L 133.03 92.37
  A 0.41 0.40 89.7 0 1 133.43 92.77
  Q 133.48 101.07 133.45 151.71
  Z"
/>
<path fill="#242122" d="
  M 188.18 92.36
  A 0.40 0.40 0.0 0 1 188.58 92.76
  L 188.58 121.97
  A 0.79 0.79 0.0 0 1 187.79 122.76
  L 187.05 122.76
  A 0.90 0.90 0.0 0 1 186.15 121.92
  Q 184.75 102.81 166.79 97.48
  Q 158.10 94.91 147.17 94.73
  A 0.83 0.83 0.0 0 1 146.35 93.90
  L 146.35 93.16
  A 0.80 0.80 0.0 0 1 147.15 92.36
  L 188.18 92.36
  Z"
/>
<path fill="#242122" d="
  M 272.46 92.39
  L 316.43 92.39
  A 0.59 0.58 -90.0 0 1 317.01 92.98
  L 317.01 93.80
  A 0.71 0.70 89.2 0 1 316.33 94.51
  C 306.22 94.77 304.85 103.32 307.70 110.97
  Q 336.89 189.29 337.76 191.63
  A 2.63 2.60 -44.7 0 1 337.74 193.53
  Q 335.83 198.26 331.30 209.76
  Q 330.64 211.45 329.03 211.18
  A 1.03 1.02 81.9 0 1 328.28 210.61
  Q 327.31 208.56 326.90 207.58
  Q 306.97 159.03 287.68 106.81
  Q 286.19 102.80 282.87 98.55
  Q 279.27 93.97 272.56 94.51
  A 0.56 0.56 0.0 0 1 271.95 93.95
  L 271.95 92.91
  A 0.52 0.51 -90.0 0 1 272.46 92.39
  Z"
/>
<path fill="#242122" d="
  M 348.78 93.73
  L 348.78 93.06
  A 0.69 0.68 -0.0 0 1 349.47 92.38
  L 389.80 92.38
  A 0.83 0.83 0.0 0 1 390.63 93.27
  L 390.61 93.54
  A 1.11 1.11 0.0 0 1 389.39 94.52
  C 380.97 93.58 376.11 98.92 372.22 106.30
  Q 365.17 119.70 360.30 134.01
  A 1.04 1.04 0.0 0 1 358.91 134.63
  L 358.80 134.58
  A 1.17 1.17 0.0 0 1 358.17 133.11
  Q 361.15 124.81 363.15 117.17
  C 364.50 112.02 365.31 104.48 362.27 99.96
  C 359.58 95.96 354.15 94.28 349.53 94.45
  A 0.72 0.72 0.0 0 1 348.78 93.73
  Z"
/>
<path fill="#242122" d="
  M 734.08 211.10
  L 730.23 211.10
  A 1.61 1.60 -19.0 0 1 728.97 210.49
  Q 723.48 203.42 650.19 108.20
  C 645.26 101.81 639.27 94.69 630.18 94.35
  A 0.86 0.85 -89.0 0 1 629.36 93.49
  L 629.36 93.13
  A 0.77 0.77 0.0 0 1 630.13 92.36
  L 659.70 92.36
  A 1.63 1.62 71.4 0 1 661.00 93.01
  L 734.40 188.73
  A 1.87 1.86 -63.7 0 1 734.78 189.86
  L 734.78 210.40
  A 0.70 0.70 0.0 0 1 734.08 211.10
  Z"
/>
<path fill="#242122" d="
  M 710.66 93.43
  L 710.66 93.14
  A 0.75 0.74 90.0 0 1 711.40 92.39
  L 757.74 92.39
  A 0.75 0.75 0.0 0 1 758.49 93.14
  L 758.49 93.45
  A 0.97 0.97 0.0 0 1 757.54 94.42
  C 735.54 94.91 734.18 117.13 734.77 133.59
  A 0.83 0.83 0.0 0 1 733.94 134.45
  L 733.31 134.45
  A 0.88 0.88 0.0 0 1 732.43 133.57
  C 732.43 118.50 732.44 95.04 711.67 94.47
  A 1.04 1.04 0.0 0 1 710.66 93.43
  Z"
/>
<path fill="#242122" d="
  M 484.36 208.80
  A 0.51 0.51 0.0 0 1 484.90 209.31
  L 484.90 209.60
  A 0.41 0.40 0.0 0 1 484.49 210.00
  L 448.70 210.00
  A 0.43 0.43 0.0 0 1 448.27 209.57
  L 448.27 209.18
  A 0.45 0.45 0.0 0 1 448.74 208.73
  C 454.05 209.01 458.02 203.17 459.98 199.22
  Q 465.82 187.48 470.87 173.69
  A 1.23 1.23 0.0 0 1 472.02 172.89
  L 515.34 172.89
  A 0.35 0.34 79.5 0 0 515.66 172.42
  Q 504.72 143.92 493.74 115.74
  C 492.56 112.70 493.39 111.71 494.62 108.42
  Q 497.84 99.83 500.13 93.38
  A 1.39 1.39 0.0 0 1 502.72 93.32
  Q 522.34 141.22 543.06 194.70
  Q 545.09 199.95 547.40 203.57
  C 549.92 207.51 551.81 208.28 556.36 208.87
  A 0.59 0.59 0.0 0 1 556.87 209.52
  L 556.87 209.54
  A 0.49 0.49 0.0 0 1 556.38 209.99
  L 519.48 210.00
  A 0.38 0.38 0.0 0 1 519.10 209.62
  L 519.10 209.32
  A 0.62 0.62 0.0 0 1 519.72 208.70
  Q 524.60 208.67 525.28 204.44
  Q 526.02 199.88 524.33 195.19
  Q 521.00 185.95 516.93 175.61
  A 0.98 0.97 -10.5 0 0 516.02 174.99
  L 474.58 174.99
  A 1.15 1.15 0.0 0 0 473.50 175.74
  Q 470.39 184.04 468.96 192.70
  Q 468.50 195.46 469.26 199.23
  C 470.82 207.07 477.24 209.15 484.36 208.80
  Z"
/>
<path fill="#242122" d="
  M 169.55 151.10
  Q 169.54 160.00 169.52 168.51
  A 0.87 0.87 0.0 0 1 168.65 169.37
  L 168.13 169.37
  A 1.02 1.01 86.1 0 1 167.13 168.49
  Q 166.51 164.01 165.77 162.47
  C 162.05 154.68 155.00 153.03 147.11 152.27
  A 0.84 0.83 85.4 0 1 146.39 151.65
  Q 146.34 151.45 146.34 151.09
  Q 146.34 150.72 146.39 150.52
  A 0.84 0.83 -85.3 0 1 147.11 149.90
  C 155.00 149.15 162.06 147.52 165.79 139.73
  Q 166.53 138.19 167.16 133.71
  A 1.02 1.01 -86.0 0 1 168.16 132.84
  L 168.68 132.84
  A 0.87 0.87 0.0 0 1 169.54 133.70
  Q 169.55 142.21 169.55 151.10
  Z"
/>
<path fill="#242122" d="
  M 658.48 169.64
  C 658.27 178.88 658.61 189.62 662.90 198.45
  Q 666.54 205.94 674.83 208.09
  C 676.11 208.42 677.99 208.45 679.42 208.65
  A 1.10 1.10 0.0 0 1 680.36 209.74
  L 680.36 210.16
  A 0.91 0.91 0.0 0 1 679.45 211.07
  L 632.93 211.07
  A 0.94 0.94 0.0 0 1 631.99 210.13
  L 631.99 209.66
  A 0.98 0.98 0.0 0 1 632.86 208.69
  C 640.26 207.86 646.20 206.42 650.22 199.92
  C 655.81 190.87 656.16 179.69 656.04 169.79
  A 0.94 0.94 0.0 0 1 656.98 168.84
  L 657.69 168.84
  A 0.79 0.79 0.0 0 1 658.48 169.64
  Z"
/>
<path fill="#242122" d="
  M 838.14 168.89
  L 838.45 168.89
  A 0.96 0.96 0.0 0 1 839.40 169.74
  C 841.52 189.08 849.10 204.47 869.54 207.61
  A 1.32 1.31 -85.7 0 1 870.65 208.91
  L 870.65 209.20
  A 0.73 0.72 2.5 0 1 869.86 209.92
  Q 858.98 208.91 851.69 207.07
  Q 845.35 205.48 837.87 201.37
  A 1.05 1.04 14.7 0 1 837.33 200.46
  L 837.33 169.70
  A 0.81 0.81 0.0 0 1 838.14 168.89
  Z"
/>
<path fill="#242122" d="
  M 189.08 176.03
  L 190.25 176.03
  A 0.42 0.42 0.0 0 1 190.67 176.45
  L 190.67 210.56
  A 0.51 0.51 0.0 0 1 190.16 211.07
  L 147.52 211.07
  A 1.16 1.15 0.0 0 1 146.36 209.92
  L 146.36 209.46
  A 0.94 0.93 -1.6 0 1 147.25 208.53
  C 155.92 208.10 163.98 207.41 171.52 203.74
  C 182.69 198.31 187.04 188.22 188.52 176.52
  A 0.56 0.56 0.0 0 1 189.08 176.03
  Z"
/>
<rect fill="#242122" x="189.68" y="254.80" width="644.26" height="1.32" rx="0.65"/>
<path fill="#242122" d="
  M 283.88 324.74
  C 286.44 324.66 286.85 325.51 286.84 327.98
  Q 286.81 334.91 286.85 341.43
  A 0.91 0.90 -0.3 0 1 285.94 342.34
  L 285.41 342.34
  A 1.03 1.02 -0.0 0 1 284.38 341.32
  L 284.38 327.63
  A 2.32 2.31 4.2 0 0 282.40 325.34
  L 279.00 324.85
  A 1.54 1.53 -85.9 0 0 277.25 326.37
  L 277.25 341.35
  A 0.97 0.96 0.0 0 1 276.28 342.31
  L 275.19 342.31
  A 1.02 1.01 -0.0 0 1 274.17 341.30
  L 274.17 307.11
  A 0.45 0.45 0.0 0 1 274.60 306.66
  Q 280.27 306.48 284.21 306.80
  Q 286.95 307.02 286.92 309.99
  Q 286.80 320.50 286.86 321.65
  A 1.28 1.27 69.8 0 1 286.36 322.74
  L 283.85 324.66
  A 0.05 0.04 25.1 0 0 283.88 324.74
  Z
  M 277.32 308.80
  L 277.24 322.54
  A 0.74 0.74 0.0 0 0 277.98 323.29
  L 280.81 323.30
  A 3.49 2.49 0.3 0 0 284.31 320.83
  L 284.37 310.59
  A 3.49 2.49 0.3 0 0 280.89 308.08
  L 278.06 308.07
  A 0.74 0.74 0.0 0 0 277.32 308.80
  Z"
/>
<path fill="#242122" d="
  M 337.78 342.16
  L 328.53 342.16
  A 0.23 0.23 0.0 0 1 328.30 341.93
  L 328.30 306.85
  A 0.23 0.23 0.0 0 1 328.53 306.62
  L 337.55 306.62
  A 0.23 0.23 0.0 0 1 337.78 306.85
  L 337.78 307.87
  A 0.23 0.23 0.0 0 1 337.55 308.10
  L 331.23 308.10
  A 0.23 0.23 0.0 0 0 331.00 308.33
  L 331.00 323.20
  A 0.23 0.23 0.0 0 0 331.23 323.43
  L 337.14 323.43
  A 0.23 0.23 0.0 0 1 337.37 323.66
  L 337.37 324.76
  A 0.23 0.23 0.0 0 1 337.14 324.99
  L 331.18 324.99
  A 0.23 0.23 0.0 0 0 330.95 325.22
  L 330.95 340.90
  A 0.23 0.23 0.0 0 0 331.18 341.13
  L 337.78 341.13
  A 0.23 0.23 0.0 0 1 338.01 341.36
  L 338.01 341.93
  A 0.23 0.23 0.0 0 1 337.78 342.16
  Z"
/>
<path fill="#242122" d="
  M 380.72 310.44
  A 0.17 0.15 -87.1 0 0 380.63 310.33
  L 380.62 310.33
  A 0.15 0.15 0.0 0 0 380.49 310.48
  L 381.04 341.45
  A 0.72 0.71 -1.2 0 1 380.34 342.17
  L 379.08 342.19
  A 0.61 0.60 -0.5 0 1 378.46 341.59
  L 378.46 307.39
  A 0.78 0.78 0.0 0 1 379.22 306.61
  Q 381.14 306.55 382.00 306.80
  A 1.00 0.99 5.3 0 1 382.71 307.65
  Q 382.88 309.11 388.92 339.96
  Q 388.93 340.05 388.95 340.06
  A 0.08 0.07 22.4 0 0 389.08 340.01
  L 388.46 307.81
  A 1.14 1.14 0.0 0 1 389.58 306.65
  L 390.68 306.62
  A 0.77 0.77 0.0 0 1 391.46 307.39
  L 391.46 341.49
  A 0.74 0.73 -0.0 0 1 390.72 342.22
  L 387.88 342.22
  A 0.81 0.81 0.0 0 1 387.09 341.57
  L 380.72 310.44
  Z"
/>
<path fill="#242122" d="
  M 446.36 339.09
  A 3.20 3.20 0.0 0 1 443.16 342.29
  L 436.94 342.29
  A 3.20 3.20 0.0 0 1 433.74 339.09
  L 433.74 309.79
  A 3.20 3.20 0.0 0 1 436.94 306.59
  L 443.16 306.59
  A 3.20 3.20 0.0 0 1 446.36 309.79
  L 446.36 339.09
  Z
  M 443.90 310.28
  A 2.30 2.30 0.0 0 0 441.60 307.98
  L 439.02 307.98
  A 2.30 2.30 0.0 0 0 436.72 310.28
  L 436.72 338.70
  A 2.30 2.30 0.0 0 0 439.02 341.00
  L 441.60 341.00
  A 2.30 2.30 0.0 0 0 443.90 338.70
  L 443.90 310.28
  Z"
/>
<path fill="#242122" d="
  M 493.27 340.31
  A 0.29 0.29 0.0 0 0 493.79 340.16
  Q 495.29 325.14 498.67 307.12
  Q 498.71 306.90 499.18 306.58
  A 0.79 0.79 0.0 0 1 500.42 307.19
  Q 500.63 310.68 499.97 315.50
  Q 498.31 327.85 495.59 341.61
  A 0.78 0.77 -84.6 0 1 494.83 342.24
  L 491.92 342.24
  A 0.90 0.90 0.0 0 1 491.03 341.48
  L 485.37 307.56
  A 0.82 0.82 0.0 0 1 486.18 306.61
  L 487.18 306.61
  A 1.31 1.30 85.0 0 1 488.46 307.69
  Q 490.53 320.07 492.97 337.56
  C 493.10 338.49 493.01 339.98 493.27 340.31
  Z"
/>
<path fill="#242122" d="
  M 543.67 306.64
  Q 544.53 306.64 545.31 306.81
  A 0.86 0.84 1.8 0 1 545.97 307.50
  L 551.54 340.90
  A 1.23 1.22 -8.1 0 1 550.47 342.31
  L 549.99 342.37
  A 1.02 1.01 -7.7 0 1 548.87 341.52
  L 547.42 332.85
  A 0.76 0.75 -4.1 0 0 546.68 332.22
  Q 546.33 332.22 543.65 332.22
  Q 540.96 332.21 540.61 332.22
  A 0.76 0.75 4.2 0 0 539.87 332.84
  L 538.41 341.51
  A 1.02 1.01 7.8 0 1 537.29 342.36
  L 536.81 342.30
  A 1.23 1.22 8.2 0 1 535.74 340.89
  L 541.37 307.50
  A 0.86 0.84 -1.7 0 1 542.03 306.80
  Q 542.80 306.64 543.67 306.64
  Z
  M 543.48 330.55
  Q 545.38 330.56 546.61 330.44
  A 0.26 0.26 0.0 0 0 546.84 330.13
  Q 544.72 317.68 543.76 309.44
  Q 543.74 309.27 543.55 309.27
  Q 543.35 309.27 543.33 309.43
  Q 542.32 317.67 540.12 330.11
  A 0.26 0.26 0.0 0 0 540.35 330.42
  Q 541.58 330.55 543.48 330.55
  Z"
/>
<path fill="#242122" d="
  M 592.83 306.61
  Q 595.85 306.62 598.74 306.71
  A 0.54 0.54 0.0 0 1 599.26 307.34
  L 599.16 307.62
  A 0.70 0.70 0.0 0 1 598.50 308.08
  L 594.93 308.08
  A 0.62 0.62 0.0 0 0 594.31 308.70
  L 594.25 341.26
  A 1.19 1.18 70.7 0 1 593.81 342.19
  Q 593.63 342.33 592.78 342.33
  Q 591.92 342.33 591.74 342.18
  A 1.19 1.18 -70.6 0 1 591.30 341.26
  L 591.33 308.70
  A 0.62 0.62 0.0 0 0 590.72 308.07
  L 587.15 308.06
  A 0.70 0.70 0.0 0 1 586.49 307.60
  L 586.39 307.32
  A 0.54 0.54 0.0 0 1 586.91 306.69
  Q 589.80 306.61 592.83 306.61
  Z"
/>
<rect fill="#242122" x="638.25" y="306.59" width="2.66" height="35.82" rx="1.02"/>
<path fill="#242122" d="
  M 695.21 339.05
  A 3.16 3.16 0.0 0 1 692.05 342.21
  L 685.93 342.21
  A 3.16 3.16 0.0 0 1 682.77 339.05
  L 682.77 309.81
  A 3.16 3.16 0.0 0 1 685.93 306.65
  L 692.05 306.65
  A 3.16 3.16 0.0 0 1 695.21 309.81
  L 695.21 339.05
  Z
  M 692.8249 310.1036
  A 2.20 2.20 0.0 0 0 690.6211 307.9074
  L 687.6411 307.9126
  A 2.20 2.20 0.0 0 0 685.4449 310.1165
  L 685.4951 338.8764
  A 2.20 2.20 0.0 0 0 687.6989 341.0726
  L 690.6789 341.0674
  A 2.20 2.20 0.0 0 0 692.8751 338.8635
  L 692.8249 310.1036
  Z"
/>
<path fill="#242122" d="
  M 742.20 324.70
  Q 740.43 316.07 739.03 309.53
  A 0.04 0.04 0.0 0 0 738.95 309.52
  Q 738.94 309.55 738.92 309.59
  A 0.20 0.02 83.7 0 0 738.92 309.74
  Q 739.73 324.87 739.27 341.65
  A 0.67 0.67 0.0 0 1 738.60 342.30
  L 737.42 342.30
  A 0.68 0.68 0.0 0 1 736.74 341.62
  L 736.74 307.30
  A 0.58 0.57 90.0 0 1 737.31 306.72
  L 740.08 306.72
  A 1.01 1.00 84.5 0 1 741.07 307.54
  Q 743.10 318.17 744.36 324.29
  Q 746.12 332.92 747.53 339.46
  A 0.04 0.04 0.0 0 0 747.60 339.47
  Q 747.61 339.44 747.63 339.40
  A 0.20 0.02 83.7 0 0 747.63 339.25
  Q 746.82 324.12 747.28 307.34
  A 0.67 0.67 0.0 0 1 747.95 306.69
  L 749.13 306.69
  A 0.68 0.68 0.0 0 1 749.81 307.37
  L 749.81 341.69
  A 0.58 0.57 90.0 0 1 749.24 342.27
  L 746.47 342.27
  A 1.01 1.00 84.5 0 1 745.49 341.45
  Q 743.45 330.82 742.20 324.70
  Z"
/>
<path fill="#ffffff" d="
  M 277.32 308.80
  A 0.74 0.74 0.0 0 1 278.06 308.07
  L 280.89 308.08
  A 3.49 2.49 0.3 0 1 284.37 310.59
  L 284.31 320.83
  A 3.49 2.49 0.3 0 1 280.81 323.30
  L 277.98 323.29
  A 0.74 0.74 0.0 0 1 277.24 322.54
  L 277.32 308.80
  Z"
/>
<rect fill="#ffffff" x="436.72" y="307.98" width="7.18" height="33.02" rx="2.30"/>
<rect fill="#ffffff" x="-3.69" y="-16.58" transform="translate(689.16,324.49) rotate(-0.1)" width="7.38" height="33.16" rx="2.20"/>
<path fill="#ffffff" d="
  M 543.55 309.27
  Q 543.74 309.27 543.76 309.44
  Q 544.72 317.68 546.84 330.13
  A 0.26 0.26 0.0 0 1 546.61 330.44
  Q 545.38 330.56 543.48 330.55
  Q 541.58 330.55 540.35 330.42
  A 0.26 0.26 0.0 0 1 540.12 330.11
  Q 542.32 317.67 543.33 309.43
  Q 543.35 309.27 543.55 309.27
  Z"
/>
</svg>
